<svg width="15" height="15" viewBox="0 0 15 15" fill="currentColor" xmlns="http://www.w3.org/2000/svg">
<path d="M13.5938 7.5C13.5938 8.70523 13.2364 9.88339 12.5668 10.8855C11.8972 11.8876 10.9455 12.6687 9.83198 13.1299C8.71849 13.5911 7.49324 13.7118 6.31117 13.4767C5.1291 13.2415 4.0433 12.6612 3.19107 11.8089C2.33884 10.9567 1.75847 9.8709 1.52334 8.68883C1.28821 7.50676 1.40889 6.28151 1.87011 5.16802C2.33133 4.05454 3.11238 3.10282 4.1145 2.43323C5.11661 1.76364 6.29477 1.40625 7.5 1.40625C9.11555 1.40827 10.6643 2.05093 11.8067 3.19329C12.9491 4.33566 13.5917 5.88446 13.5938 7.5Z"/>
</svg>
