<svg width="14" height="14" viewBox="0 0 14 14" fill="none" xmlns="http://www.w3.org/2000/svg">
<path d="M8.925 9.74166L9.74167 8.92499L7.58334 6.76666V4.08332H6.41667V7.23332L8.925 9.74166ZM7.00001 12.8333C6.19306 12.8333 5.43473 12.6802 4.72501 12.3739C4.01528 12.0677 3.39792 11.6521 2.87292 11.1271C2.34792 10.6021 1.9323 9.98471 1.62605 9.27499C1.3198 8.56527 1.16667 7.80693 1.16667 6.99999C1.16667 6.19305 1.3198 5.43471 1.62605 4.72499C1.9323 4.01527 2.34792 3.39791 2.87292 2.87291C3.39792 2.34791 4.01528 1.93228 4.72501 1.62603C5.43473 1.31978 6.19306 1.16666 7.00001 1.16666C7.80695 1.16666 8.56528 1.31978 9.27501 1.62603C9.98473 1.93228 10.6021 2.34791 11.1271 2.87291C11.6521 3.39791 12.0677 4.01527 12.374 4.72499C12.6802 5.43471 12.8333 6.19305 12.8333 6.99999C12.8333 7.80693 12.6802 8.56527 12.374 9.27499C12.0677 9.98471 11.6521 10.6021 11.1271 11.1271C10.6021 11.6521 9.98473 12.0677 9.27501 12.3739C8.56528 12.6802 7.80695 12.8333 7.00001 12.8333ZM7.00001 11.6667C8.29306 11.6667 9.3941 11.2121 10.3031 10.3031C11.2122 9.39409 11.6667 8.29305 11.6667 6.99999C11.6667 5.70693 11.2122 4.60589 10.3031 3.69686C9.3941 2.78784 8.29306 2.33332 7.00001 2.33332C5.70695 2.33332 4.60591 2.78784 3.69688 3.69686C2.78785 4.60589 2.33334 5.70693 2.33334 6.99999C2.33334 8.29305 2.78785 9.39409 3.69688 10.3031C4.60591 11.2121 5.70695 11.6667 7.00001 11.6667Z" fill="#5F6368"/>
</svg>
