<svg width="18" height="18" viewBox="0 0 18 18" fill="none" xmlns="http://www.w3.org/2000/svg">
<path d="M12.6576 3.9835H5.30898C4.90814 3.9835 4.54071 4.24752 4.54071 4.59076C4.54071 4.93399 4.87474 5.19802 5.30898 5.19802H12.6576C13.0585 5.19802 13.4259 4.93399 13.4259 4.59076C13.4259 4.24752 13.0585 3.9835 12.6576 3.9835Z" fill="#7C7C7C"/>
<path d="M12.6576 6.49175H5.30898C4.90814 6.49175 4.54071 6.75578 4.54071 7.09901C4.54071 7.44224 4.87474 7.70627 5.30898 7.70627H12.6576C13.0585 7.70627 13.4259 7.44224 13.4259 7.09901C13.4259 6.75578 13.0585 6.49175 12.6576 6.49175Z" fill="#7C7C7C"/>
<path d="M10.5532 8.9736H5.30898C4.90814 8.9736 4.54071 9.23763 4.54071 9.58086C4.54071 9.92409 4.87474 10.1881 5.30898 10.1881H10.5532C10.9541 10.1881 11.3215 9.92409 11.3215 9.58086C11.3215 9.23763 10.9541 8.9736 10.5532 8.9736Z" fill="#7C7C7C"/>
<path d="M8.98329 11.5083C7.78079 11.5083 6.8455 12.2739 6.8455 13.198C6.8455 14.1221 7.81419 14.8878 8.98329 14.8878C10.1858 14.8878 11.1211 14.1221 11.1211 13.198C11.1211 12.2739 10.1858 11.5083 8.98329 11.5083ZM8.98329 13.6997C8.61586 13.6997 8.34864 13.4621 8.34864 13.198C8.34864 12.934 8.61586 12.6964 8.98329 12.6964C9.35072 12.6964 9.61795 12.934 9.61795 13.198C9.61795 13.4621 9.35072 13.6997 8.98329 13.6997Z" fill="#7C7C7C"/>
<path d="M13.5261 1H4.4405C2.53653 1 1 2.21452 1 3.71947V14.2805C1 15.7855 2.53653 17 4.4405 17H13.5595C15.4635 17 17 15.7855 17 14.2805V3.71947C16.9666 2.21452 15.4301 1 13.5261 1ZM15.4635 14.2805C15.4635 15.1254 14.595 15.8119 13.5261 15.8119H4.4405C3.37161 15.8119 2.50313 15.1254 2.50313 14.2805V3.71947C2.50313 2.87459 3.37161 2.18812 4.4405 2.18812H13.5595C14.6284 2.18812 15.4969 2.87459 15.4969 3.71947V14.2805H15.4635Z" fill="#7C7C7C"/>
</svg>
