<svg width="13" height="12" viewBox="0 0 13 12" fill="currentColor" xmlns="http://www.w3.org/2000/svg">
<path d="M3.04546 1.33336H12.0354C12.2778 1.33336 12.5 1.06669 12.5 0.720023C12.5 0.373356 12.298 0.106689 12.0354 0.106689H3.04546C2.80303 0.106689 2.58081 0.373356 2.58081 0.720023C2.58081 1.06669 2.78283 1.33336 3.04546 1.33336Z"/>
<path d="M12.0152 5.41333H3.04546C2.80303 5.41333 2.58081 5.68 2.58081 6.02666C2.58081 6.34666 2.78283 6.64 3.04546 6.64H12.0354C12.2778 6.64 12.5 6.37333 12.5 6.02666C12.4798 5.68 12.2778 5.41333 12.0152 5.41333Z"/>
<path d="M12.0152 10.6667H3.04546C2.80303 10.6667 2.58081 10.9334 2.58081 11.28C2.58081 11.6267 2.78283 11.8934 3.04546 11.8934H12.0354C12.2778 11.8934 12.5 11.6267 12.5 11.28C12.5 10.9334 12.2778 10.6667 12.0152 10.6667Z"/>
<path d="M1.04545 1.44C1.3467 1.44 1.59091 1.11765 1.59091 0.72C1.59091 0.322355 1.3467 0 1.04545 0C0.744208 0 0.5 0.322355 0.5 0.72C0.5 1.11765 0.744208 1.44 1.04545 1.44Z"/>
<path d="M1.04545 6.72003C1.3467 6.72003 1.59091 6.39767 1.59091 6.00003C1.59091 5.60238 1.3467 5.28003 1.04545 5.28003C0.744208 5.28003 0.5 5.60238 0.5 6.00003C0.5 6.39767 0.744208 6.72003 1.04545 6.72003Z"/>
<path d="M1.04545 12C1.3467 12 1.59091 11.6776 1.59091 11.28C1.59091 10.8824 1.3467 10.56 1.04545 10.56C0.744208 10.56 0.5 10.8824 0.5 11.28C0.5 11.6776 0.744208 12 1.04545 12Z"/>
</svg>
