<svg width="14" height="14" viewBox="0 0 14 14" fill="none" xmlns="http://www.w3.org/2000/svg">
<path d="M13.8072 12.9892L9.98953 9.60289C11.5629 7.25271 11.4009 3.8917 9.43424 1.76895C8.39306 0.631769 7.00482 0 5.52403 0C4.04324 0 2.65501 0.631769 1.61383 1.76895C-0.537942 4.11913 -0.537942 7.96029 1.61383 10.3105C2.65501 11.4477 4.04324 12.0794 5.52403 12.0794C6.93541 12.0794 8.25424 11.4982 9.29541 10.4621L13.1593 13.8736C13.2519 13.9495 13.3676 14 13.4833 14C13.6452 14 13.7841 13.9242 13.8766 13.7978C14.0617 13.5451 14.0386 13.1913 13.8072 12.9892ZM5.52403 10.9422C4.32089 10.9422 3.2103 10.4368 2.35422 9.50181C0.595786 7.58123 0.595786 4.47292 2.35422 2.57762C3.2103 1.6426 4.32089 1.13718 5.52403 1.13718C6.72717 1.13718 7.83776 1.6426 8.69384 2.57762C10.4523 4.49819 10.4523 7.6065 8.69384 9.50181C7.8609 10.4368 6.72717 10.9422 5.52403 10.9422Z" fill="#7C7C7C"/>
</svg>
