<svg width="30" height="30" viewBox="0 0 30 30" fill="none" xmlns="http://www.w3.org/2000/svg">
<path d="M15.0146 11.4434C14.1387 11.4434 13.3183 11.7832 12.6972 12.4043C12.0791 13.0254 11.7363 13.8457 11.7363 14.7217C11.7363 15.5977 12.0791 16.418 12.6972 17.0391C13.3183 17.6572 14.1387 18 15.0146 18C15.8906 18 16.7109 17.6572 17.332 17.0391C17.9502 16.418 18.293 15.5977 18.293 14.7217C18.293 13.8457 17.9502 13.0254 17.332 12.4043C17.0287 12.0986 16.6676 11.8562 16.2698 11.6913C15.8719 11.5263 15.4453 11.442 15.0146 11.4434ZM27.0937 18.3428L25.1777 16.7051C25.2685 16.1484 25.3154 15.5801 25.3154 15.0146C25.3154 14.4492 25.2685 13.8779 25.1777 13.3242L27.0937 11.6865C27.2385 11.5626 27.3421 11.3976 27.3907 11.2134C27.4394 11.0292 27.4308 10.8345 27.3662 10.6553L27.3398 10.5791C26.8125 9.10456 26.0224 7.73776 25.0078 6.54492L24.9551 6.4834C24.8319 6.33853 24.6676 6.23439 24.4841 6.18471C24.3005 6.13503 24.1062 6.14213 23.9267 6.20508L21.5478 7.05176C20.6689 6.33105 19.6904 5.7627 18.6299 5.36719L18.1699 2.87988C18.1352 2.69251 18.0443 2.52012 17.9093 2.38564C17.7743 2.25115 17.6016 2.16093 17.414 2.12695L17.3349 2.1123C15.8115 1.83691 14.206 1.83691 12.6826 2.1123L12.6035 2.12695C12.416 2.16093 12.2433 2.25115 12.1082 2.38564C11.9732 2.52012 11.8823 2.69251 11.8476 2.87988L11.3847 5.37891C10.3342 5.77755 9.35562 6.34453 8.48729 7.05762L6.0908 6.20508C5.91141 6.14163 5.71695 6.13427 5.53327 6.18398C5.34959 6.2337 5.18539 6.33813 5.06248 6.4834L5.00975 6.54492C3.99692 7.73902 3.20701 9.10548 2.67772 10.5791L2.65135 10.6553C2.51951 11.0215 2.62791 11.4316 2.92381 11.6865L4.86326 13.3418C4.77244 13.8926 4.7285 14.4551 4.7285 15.0117C4.7285 15.5742 4.77244 16.1367 4.86326 16.6816L2.92967 18.3369C2.78493 18.4608 2.68134 18.6259 2.63267 18.8101C2.584 18.9943 2.59256 19.1889 2.65721 19.3682L2.68358 19.4443C3.21385 20.918 3.99608 22.2803 5.01561 23.4785L5.06834 23.54C5.19155 23.6849 5.35576 23.789 5.53933 23.8387C5.7229 23.8884 5.91721 23.8813 6.09666 23.8184L8.49315 22.9658C9.36619 23.6836 10.3389 24.252 11.3906 24.6445L11.8535 27.1436C11.8882 27.3309 11.9791 27.5033 12.1141 27.6378C12.2491 27.7723 12.4218 27.8625 12.6094 27.8965L12.6885 27.9111C14.2269 28.188 15.8024 28.188 17.3408 27.9111L17.4199 27.8965C17.6074 27.8625 17.7801 27.7723 17.9152 27.6378C18.0502 27.5033 18.1411 27.3309 18.1758 27.1436L18.6357 24.6562C19.6963 24.2578 20.6748 23.6924 21.5537 22.9717L23.9326 23.8184C24.112 23.8818 24.3065 23.8892 24.4901 23.8395C24.6738 23.7897 24.838 23.6853 24.9609 23.54L25.0137 23.4785C26.0332 22.2744 26.8154 20.918 27.3457 19.4443L27.3721 19.3682C27.498 19.0049 27.3896 18.5977 27.0937 18.3428ZM15.0146 19.8721C12.1699 19.8721 9.86424 17.5664 9.86424 14.7217C9.86424 11.877 12.1699 9.57129 15.0146 9.57129C17.8594 9.57129 20.165 11.877 20.165 14.7217C20.165 17.5664 17.8594 19.8721 15.0146 19.8721Z" fill="white"/>
</svg>
